<?xml version="1.0" encoding="UTF-8" standalone="no"?>
<svg width="117px" height="36px" viewBox="0 0 117 36" version="1.1" xmlns="http://www.w3.org/2000/svg" xmlns:xlink="http://www.w3.org/1999/xlink" xmlns:sketch="http://www.bohemiancoding.com/sketch/ns">
    <!-- Generator: Sketch 3.3.2 (12043) - http://www.bohemiancoding.com/sketch -->
    <title>logo</title>
    <desc>Created with Sketch.</desc>
    <defs></defs>
    <g id="landing_page" stroke="none" stroke-width="1" fill="none" fill-rule="evenodd" sketch:type="MSPage">
        <g sketch:type="MSArtboardGroup" transform="translate(-60.000000, -27.000000)" id="slide_1">
            <g sketch:type="MSLayerGroup">
                <g id="logo" transform="translate(60.000000, 27.000000)" sketch:type="MSShapeGroup">
                    <path d="M2.5160519e-15,35.3333333 L0,0.666666667 L17.5280899,18 L2.5160519e-15,35.3333333 Z M17.5280899,18 L35.0561798,0.666666667 L35.0561798,35.3333333 L17.5280899,18 L17.5280899,18 Z" id="symbol" fill="#45A9EC"></path>
                    <path d="M67.3402247,7.25333333 L67.3402247,29.3333333 L64.4925843,29.3333333 L64.4925843,18.7413333 L54.2022472,18.7413333 L54.2022472,29.3333333 L51.3546067,29.3333333 L51.3546067,7.25333333 L54.2022472,7.25333333 L54.2022472,16.3093333 L64.4925843,16.3093333 L64.4925843,7.25333333 L67.3402247,7.25333333 Z M73.5208989,7.12533333 L74.8152809,7.12533333 C75.3761826,7.12533333 75.6566292,7.40266389 75.6566292,7.95733333 L75.6566292,9.78133333 C75.6566292,10.3360028 75.3761826,10.6133333 74.8152809,10.6133333 L73.5208989,10.6133333 C72.9599972,10.6133333 72.6795506,10.3360028 72.6795506,9.78133333 L72.6795506,7.95733333 C72.6795506,7.40266389 72.9599972,7.12533333 73.5208989,7.12533333 L73.5208989,7.12533333 Z M75.527191,29.3333333 L72.8089888,29.3333333 L72.8089888,13.7493333 L75.527191,13.7493333 L75.527191,29.3333333 Z M80.9959551,29.3333333 L80.9959551,7.25333333 C82.8080989,7.06133237 85.3644779,6.96533333 88.6651685,6.96533333 C91.3833844,6.96533333 93.2602195,7.45066181 94.2957303,8.42133333 C95.3312411,9.39200485 95.8489888,11.2106533 95.8489888,13.8773333 C95.8489888,16.5440133 95.3474207,18.3626618 94.3442697,19.3333333 C93.3411186,20.3040049 91.5559679,20.7893333 88.988764,20.7893333 C87.2197664,20.7893333 85.5047274,20.6933343 83.8435955,20.5013333 L83.8435955,29.3333333 L80.9959551,29.3333333 Z M83.8435955,18.3573333 L88.632809,18.3573333 C90.2939409,18.3359999 91.431907,18.0213364 92.0467416,17.4133333 C92.6615761,16.8053303 92.9689888,15.6266754 92.9689888,13.8773333 C92.9689888,12.1279913 92.6561829,10.9440031 92.0305618,10.3253333 C91.4049407,9.70666357 90.2723677,9.39733333 88.632809,9.39733333 C86.2813366,9.39733333 84.684948,9.40799989 83.8435955,9.42933333 L83.8435955,18.3573333 Z M108.080899,6.83733333 C111.360016,6.83733333 113.646735,7.67465829 114.941124,9.34933333 C116.235512,11.0240084 116.882697,14.0053119 116.882697,18.2933333 C116.882697,22.5813548 116.235512,25.5626583 114.941124,27.2373333 C113.646735,28.9120084 111.360016,29.7493333 108.080899,29.7493333 C104.801781,29.7493333 102.509669,28.9120084 101.204494,27.2373333 C99.8993193,25.5626583 99.2467416,22.5813548 99.2467416,18.2933333 C99.2467416,14.0053119 99.8993193,11.0240084 101.204494,9.34933333 C102.509669,7.67465829 104.801781,6.83733333 108.080899,6.83733333 L108.080899,6.83733333 Z M108.080899,9.36533333 C105.880438,9.36533333 104.359555,10.0106602 103.518202,11.3013333 C102.67685,12.5920065 102.25618,14.9226498 102.25618,18.2933333 C102.25618,21.6640169 102.67685,23.9946602 103.518202,25.2853333 C104.359555,26.5760065 105.880438,27.2213333 108.080899,27.2213333 C110.281359,27.2213333 111.802243,26.5760065 112.643596,25.2853333 C113.484948,23.9946602 113.905618,21.6640169 113.905618,18.2933333 C113.905618,14.9226498 113.484948,12.5920065 112.643596,11.3013333 C111.802243,10.0106602 110.281359,9.36533333 108.080899,9.36533333 L108.080899,9.36533333 Z" id="HiPO" fill="#FFFFFF"></path>
                </g>
            </g>
        </g>
    </g>
</svg>