<svg width="87" height="27" viewBox="0 0 87 27" xmlns="http://www.w3.org/2000/svg"><title>logo</title><g fill="none"><path d="M0 26.5V.5l13 13-13 13zm13-13l13-13v26l-13-13z" fill="#2574A9"/><path d="M49.944 5.44V22h-2.112v-7.944H40.2V22h-2.112V5.44H40.2v6.792h7.632V5.44h2.112zm4.584-.096h.96c.416 0 .624.208.624.624v1.368c0 .416-.208.624-.624.624h-.96c-.416 0-.624-.208-.624-.624V5.968c0-.416.208-.624.624-.624zM56.016 22H54V10.312h2.016V22zm4.056 0V5.44c1.344-.144 3.24-.216 5.688-.216 2.016 0 3.408.364 4.176 1.092.768.728 1.152 2.092 1.152 4.092 0 2-.372 3.364-1.116 4.092-.744.728-2.068 1.092-3.972 1.092-1.312 0-2.584-.072-3.816-.216V22h-2.112zm2.112-8.232h3.552c1.232-.016 2.076-.252 2.532-.708.456-.456.684-1.34.684-2.652s-.232-2.2-.696-2.664c-.464-.464-1.304-.696-2.52-.696-1.744 0-2.928.008-3.552.024v6.696zm17.976-8.64c2.432 0 4.128.628 5.088 1.884.96 1.256 1.44 3.492 1.44 6.708s-.48 5.452-1.44 6.708c-.96 1.256-2.656 1.884-5.088 1.884s-4.132-.628-5.1-1.884c-.968-1.256-1.452-3.492-1.452-6.708s.484-5.452 1.452-6.708c.968-1.256 2.668-1.884 5.1-1.884zm0 1.896c-1.632 0-2.76.484-3.384 1.452-.624.968-.936 2.716-.936 5.244 0 2.528.312 4.276.936 5.244.624.968 1.752 1.452 3.384 1.452s2.76-.484 3.384-1.452c.624-.968.936-2.716.936-5.244 0-2.528-.312-4.276-.936-5.244-.624-.968-1.752-1.452-3.384-1.452z" fill="#fff"/></g></svg>